<svg xmlns="http://www.w3.org/2000/svg" xmlns:xlink="http://www.w3.org/1999/xlink" width="40" zoomAndPan="magnify" viewBox="0 0 30 30.000001" height="40" preserveAspectRatio="xMidYMid meet" version="1.0"><defs><clipPath id="14dc6b14e3"><path d="M 6 0 L 23.988281 0 L 23.988281 29 L 6 29 Z M 6 0 " clip-rule="nonzero"/></clipPath></defs><g clip-path="url(#14dc6b14e3)"><path fill="#000000" d="M 23.300781 26.148438 C 23.59375 25.847656 23.59375 25.367188 23.300781 25.070312 L 13.402344 15.054688 C 13.109375 14.757812 13.109375 14.273438 13.402344 13.976562 L 23.300781 3.964844 C 23.59375 3.664062 23.59375 3.183594 23.300781 2.886719 L 20.992188 0.554688 C 20.699219 0.257812 20.21875 0.257812 19.925781 0.554688 L 6.628906 13.976562 C 6.332031 14.273438 6.332031 14.757812 6.628906 15.054688 L 19.925781 28.476562 C 20.21875 28.773438 20.699219 28.773438 20.992188 28.476562 Z M 23.300781 26.148438 " fill-opacity="1" fill-rule="evenodd"/></g></svg>