<svg xmlns="http://www.w3.org/2000/svg" xmlns:xlink="http://www.w3.org/1999/xlink" width="40" zoomAndPan="magnify" viewBox="0 0 30 30.000001" height="40" preserveAspectRatio="xMidYMid meet" version="1.0"><defs><clipPath id="89ccf9b665"><path d="M 6 0 L 23.976562 0 L 23.976562 29 L 6 29 Z M 6 0 " clip-rule="nonzero"/></clipPath></defs><g clip-path="url(#89ccf9b665)"><path fill="#000000" d="M 6.519531 2.878906 C 6.222656 3.175781 6.222656 3.660156 6.519531 3.957031 L 16.417969 13.976562 C 16.710938 14.273438 16.710938 14.757812 16.417969 15.054688 L 6.519531 25.074219 C 6.222656 25.375 6.222656 25.855469 6.519531 26.15625 L 8.824219 28.484375 C 9.121094 28.78125 9.597656 28.78125 9.894531 28.484375 L 23.191406 15.054688 C 23.484375 14.757812 23.484375 14.273438 23.191406 13.976562 L 9.894531 0.546875 C 9.597656 0.25 9.121094 0.25 8.824219 0.546875 Z M 6.519531 2.878906 " fill-opacity="1" fill-rule="evenodd"/></g></svg>